<svg width="326" height="326" viewBox="0 0 326 326" fill="none" xmlns="http://www.w3.org/2000/svg">
<path d="M12.1724 1H1V12.1724H12.1724V1Z" fill="#333333"/>
<path d="M23.3448 1H12.1724V12.1724H23.3448V1Z" fill="#333333"/>
<path d="M34.5172 1H23.3448V12.1724H34.5172V1Z" fill="#333333"/>
<path d="M45.6897 1H34.5172V12.1724H45.6897V1Z" fill="#333333"/>
<path d="M56.8621 1H45.6897V12.1724H56.8621V1Z" fill="#333333"/>
<path d="M68.0345 1H56.8621V12.1724H68.0345V1Z" fill="#333333"/>
<path d="M79.2069 1H68.0345V12.1724H79.2069V1Z" fill="#333333"/>
<path d="M101.552 1H90.3793V12.1724H101.552V1Z" fill="#333333"/>
<path d="M157.414 1H146.241V12.1724H157.414V1Z" fill="#333333"/>
<path d="M179.759 1H168.586V12.1724H179.759V1Z" fill="#333333"/>
<path d="M202.103 1H190.931V12.1724H202.103V1Z" fill="#333333"/>
<path d="M235.621 1H224.448V12.1724H235.621V1Z" fill="#333333"/>
<path d="M257.966 1H246.793V12.1724H257.966V1Z" fill="#333333"/>
<path d="M269.138 1H257.966V12.1724H269.138V1Z" fill="#333333"/>
<path d="M280.31 1H269.138V12.1724H280.31V1Z" fill="#333333"/>
<path d="M291.483 1H280.31V12.1724H291.483V1Z" fill="#333333"/>
<path d="M302.655 1H291.483V12.1724H302.655V1Z" fill="#333333"/>
<path d="M313.828 1H302.655V12.1724H313.828V1Z" fill="#333333"/>
<path d="M325 1H313.828V12.1724H325V1Z" fill="#333333"/>
<path d="M12.1724 12.1724H1V23.3448H12.1724V12.1724Z" fill="#333333"/>
<path d="M79.2069 12.1724H68.0345V23.3448H79.2069V12.1724Z" fill="#333333"/>
<path d="M112.724 12.1724H101.552V23.3448H112.724V12.1724Z" fill="#333333"/>
<path d="M123.897 12.1724H112.724V23.3448H123.897V12.1724Z" fill="#333333"/>
<path d="M135.069 12.1724H123.897V23.3448H135.069V12.1724Z" fill="#333333"/>
<path d="M179.759 12.1724H168.586V23.3448H179.759V12.1724Z" fill="#333333"/>
<path d="M190.931 12.1724H179.759V23.3448H190.931V12.1724Z" fill="#333333"/>
<path d="M202.103 12.1724H190.931V23.3448H202.103V12.1724Z" fill="#333333"/>
<path d="M235.621 12.1724H224.448V23.3448H235.621V12.1724Z" fill="#333333"/>
<path d="M257.966 12.1724H246.793V23.3448H257.966V12.1724Z" fill="#333333"/>
<path d="M325 12.1724H313.828V23.3448H325V12.1724Z" fill="#333333"/>
<path d="M12.1724 23.3448H1V34.5172H12.1724V23.3448Z" fill="#333333"/>
<path d="M34.5172 23.3448H23.3448V34.5172H34.5172V23.3448Z" fill="#333333"/>
<path d="M45.6897 23.3448H34.5172V34.5172H45.6897V23.3448Z" fill="#333333"/>
<path d="M56.8621 23.3448H45.6897V34.5172H56.8621V23.3448Z" fill="#333333"/>
<path d="M79.2069 23.3448H68.0345V34.5172H79.2069V23.3448Z" fill="#333333"/>
<path d="M135.069 23.3448H123.897V34.5172H135.069V23.3448Z" fill="#333333"/>
<path d="M146.241 23.3448H135.069V34.5172H146.241V23.3448Z" fill="#333333"/>
<path d="M157.414 23.3448H146.241V34.5172H157.414V23.3448Z" fill="#333333"/>
<path d="M168.586 23.3448H157.414V34.5172H168.586V23.3448Z" fill="#333333"/>
<path d="M179.759 23.3448H168.586V34.5172H179.759V23.3448Z" fill="#333333"/>
<path d="M190.931 23.3448H179.759V34.5172H190.931V23.3448Z" fill="#333333"/>
<path d="M213.276 23.3448H202.103V34.5172H213.276V23.3448Z" fill="#333333"/>
<path d="M224.448 23.3448H213.276V34.5172H224.448V23.3448Z" fill="#333333"/>
<path d="M257.966 23.3448H246.793V34.5172H257.966V23.3448Z" fill="#333333"/>
<path d="M280.31 23.3448H269.138V34.5172H280.31V23.3448Z" fill="#333333"/>
<path d="M291.483 23.3448H280.31V34.5172H291.483V23.3448Z" fill="#333333"/>
<path d="M302.655 23.3448H291.483V34.5172H302.655V23.3448Z" fill="#333333"/>
<path d="M325 23.3448H313.828V34.5172H325V23.3448Z" fill="#333333"/>
<path d="M12.1724 34.5172H1V45.6897H12.1724V34.5172Z" fill="#333333"/>
<path d="M34.5172 34.5172H23.3448V45.6897H34.5172V34.5172Z" fill="#333333"/>
<path d="M45.6897 34.5172H34.5172V45.6897H45.6897V34.5172Z" fill="#333333"/>
<path d="M56.8621 34.5172H45.6897V45.6897H56.8621V34.5172Z" fill="#333333"/>
<path d="M79.2069 34.5172H68.0345V45.6897H79.2069V34.5172Z" fill="#333333"/>
<path d="M112.724 34.5172H101.552V45.6897H112.724V34.5172Z" fill="#333333"/>
<path d="M123.897 34.5172H112.724V45.6897H123.897V34.5172Z" fill="#333333"/>
<path d="M146.241 34.5172H135.069V45.6897H146.241V34.5172Z" fill="#333333"/>
<path d="M168.586 34.5172H157.414V45.6897H168.586V34.5172Z" fill="#333333"/>
<path d="M179.759 34.5172H168.586V45.6897H179.759V34.5172Z" fill="#333333"/>
<path d="M190.931 34.5172H179.759V45.6897H190.931V34.5172Z" fill="#333333"/>
<path d="M202.103 34.5172H190.931V45.6897H202.103V34.5172Z" fill="#333333"/>
<path d="M213.276 34.5172H202.103V45.6897H213.276V34.5172Z" fill="#333333"/>
<path d="M224.448 34.5172H213.276V45.6897H224.448V34.5172Z" fill="#333333"/>
<path d="M235.621 34.5172H224.448V45.6897H235.621V34.5172Z" fill="#333333"/>
<path d="M257.966 34.5172H246.793V45.6897H257.966V34.5172Z" fill="#333333"/>
<path d="M280.31 34.5172H269.138V45.6897H280.31V34.5172Z" fill="#333333"/>
<path d="M291.483 34.5172H280.31V45.6897H291.483V34.5172Z" fill="#333333"/>
<path d="M302.655 34.5172H291.483V45.6897H302.655V34.5172Z" fill="#333333"/>
<path d="M325 34.5172H313.828V45.6897H325V34.5172Z" fill="#333333"/>
<path d="M12.1724 45.6897H1V56.8621H12.1724V45.6897Z" fill="#333333"/>
<path d="M34.5172 45.6897H23.3448V56.8621H34.5172V45.6897Z" fill="#333333"/>
<path d="M45.6897 45.6897H34.5172V56.8621H45.6897V45.6897Z" fill="#333333"/>
<path d="M56.8621 45.6897H45.6897V56.8621H56.8621V45.6897Z" fill="#333333"/>
<path d="M79.2069 45.6897H68.0345V56.8621H79.2069V45.6897Z" fill="#333333"/>
<path d="M101.552 45.6897H90.3793V56.8621H101.552V45.6897Z" fill="#333333"/>
<path d="M112.724 45.6897H101.552V56.8621H112.724V45.6897Z" fill="#333333"/>
<path d="M146.241 45.6897H135.069V56.8621H146.241V45.6897Z" fill="#333333"/>
<path d="M179.759 45.6897H168.586V56.8621H179.759V45.6897Z" fill="#333333"/>
<path d="M190.931 45.6897H179.759V56.8621H190.931V45.6897Z" fill="#333333"/>
<path d="M257.966 45.6897H246.793V56.8621H257.966V45.6897Z" fill="#333333"/>
<path d="M280.31 45.6897H269.138V56.8621H280.31V45.6897Z" fill="#333333"/>
<path d="M291.483 45.6897H280.31V56.8621H291.483V45.6897Z" fill="#333333"/>
<path d="M302.655 45.6897H291.483V56.8621H302.655V45.6897Z" fill="#333333"/>
<path d="M325 45.6897H313.828V56.8621H325V45.6897Z" fill="#333333"/>
<path d="M12.1724 56.8621H1V68.0345H12.1724V56.8621Z" fill="#333333"/>
<path d="M79.2069 56.8621H68.0345V68.0345H79.2069V56.8621Z" fill="#333333"/>
<path d="M135.069 56.8621H123.897V68.0345H135.069V56.8621Z" fill="#333333"/>
<path d="M157.414 56.8621H146.241V68.0345H157.414V56.8621Z" fill="#333333"/>
<path d="M168.586 56.8621H157.414V68.0345H168.586V56.8621Z" fill="#333333"/>
<path d="M179.759 56.8621H168.586V68.0345H179.759V56.8621Z" fill="#333333"/>
<path d="M202.103 56.8621H190.931V68.0345H202.103V56.8621Z" fill="#333333"/>
<path d="M224.448 56.8621H213.276V68.0345H224.448V56.8621Z" fill="#333333"/>
<path d="M235.621 56.8621H224.448V68.0345H235.621V56.8621Z" fill="#333333"/>
<path d="M257.966 56.8621H246.793V68.0345H257.966V56.8621Z" fill="#333333"/>
<path d="M325 56.8621H313.828V68.0345H325V56.8621Z" fill="#333333"/>
<path d="M12.1724 68.0345H1V79.2069H12.1724V68.0345Z" fill="#333333"/>
<path d="M23.3448 68.0345H12.1724V79.2069H23.3448V68.0345Z" fill="#333333"/>
<path d="M34.5172 68.0345H23.3448V79.2069H34.5172V68.0345Z" fill="#333333"/>
<path d="M45.6897 68.0345H34.5172V79.2069H45.6897V68.0345Z" fill="#333333"/>
<path d="M56.8621 68.0345H45.6897V79.2069H56.8621V68.0345Z" fill="#333333"/>
<path d="M68.0345 68.0345H56.8621V79.2069H68.0345V68.0345Z" fill="#333333"/>
<path d="M79.2069 68.0345H68.0345V79.2069H79.2069V68.0345Z" fill="#333333"/>
<path d="M101.552 68.0345H90.3793V79.2069H101.552V68.0345Z" fill="#333333"/>
<path d="M123.897 68.0345H112.724V79.2069H123.897V68.0345Z" fill="#333333"/>
<path d="M146.241 68.0345H135.069V79.2069H146.241V68.0345Z" fill="#333333"/>
<path d="M168.586 68.0345H157.414V79.2069H168.586V68.0345Z" fill="#333333"/>
<path d="M190.931 68.0345H179.759V79.2069H190.931V68.0345Z" fill="#333333"/>
<path d="M213.276 68.0345H202.103V79.2069H213.276V68.0345Z" fill="#333333"/>
<path d="M235.621 68.0345H224.448V79.2069H235.621V68.0345Z" fill="#333333"/>
<path d="M257.966 68.0345H246.793V79.2069H257.966V68.0345Z" fill="#333333"/>
<path d="M269.138 68.0345H257.966V79.2069H269.138V68.0345Z" fill="#333333"/>
<path d="M280.31 68.0345H269.138V79.2069H280.31V68.0345Z" fill="#333333"/>
<path d="M291.483 68.0345H280.31V79.2069H291.483V68.0345Z" fill="#333333"/>
<path d="M302.655 68.0345H291.483V79.2069H302.655V68.0345Z" fill="#333333"/>
<path d="M313.828 68.0345H302.655V79.2069H313.828V68.0345Z" fill="#333333"/>
<path d="M325 68.0345H313.828V79.2069H325V68.0345Z" fill="#333333"/>
<path d="M101.552 79.2069H90.3793V90.3793H101.552V79.2069Z" fill="#333333"/>
<path d="M112.724 79.2069H101.552V90.3793H112.724V79.2069Z" fill="#333333"/>
<path d="M135.069 79.2069H123.897V90.3793H135.069V79.2069Z" fill="#333333"/>
<path d="M146.241 79.2069H135.069V90.3793H146.241V79.2069Z" fill="#333333"/>
<path d="M157.414 79.2069H146.241V90.3793H157.414V79.2069Z" fill="#333333"/>
<path d="M190.931 79.2069H179.759V90.3793H190.931V79.2069Z" fill="#333333"/>
<path d="M202.103 79.2069H190.931V90.3793H202.103V79.2069Z" fill="#333333"/>
<path d="M224.448 79.2069H213.276V90.3793H224.448V79.2069Z" fill="#333333"/>
<path d="M235.621 79.2069H224.448V90.3793H235.621V79.2069Z" fill="#333333"/>
<path d="M12.1724 90.3793H1V101.552H12.1724V90.3793Z" fill="#333333"/>
<path d="M45.6897 90.3793H34.5172V101.552H45.6897V90.3793Z" fill="#333333"/>
<path d="M56.8621 90.3793H45.6897V101.552H56.8621V90.3793Z" fill="#333333"/>
<path d="M68.0345 90.3793H56.8621V101.552H68.0345V90.3793Z" fill="#333333"/>
<path d="M79.2069 90.3793H68.0345V101.552H79.2069V90.3793Z" fill="#333333"/>
<path d="M90.3793 90.3793H79.2069V101.552H90.3793V90.3793Z" fill="#333333"/>
<path d="M101.552 90.3793H90.3793V101.552H101.552V90.3793Z" fill="#333333"/>
<path d="M123.897 90.3793H112.724V101.552H123.897V90.3793Z" fill="#333333"/>
<path d="M135.069 90.3793H123.897V101.552H135.069V90.3793Z" fill="#333333"/>
<path d="M146.241 90.3793H135.069V101.552H146.241V90.3793Z" fill="#333333"/>
<path d="M157.414 90.3793H146.241V101.552H157.414V90.3793Z" fill="#333333"/>
<path d="M179.759 90.3793H168.586V101.552H179.759V90.3793Z" fill="#333333"/>
<path d="M213.276 90.3793H202.103V101.552H213.276V90.3793Z" fill="#333333"/>
<path d="M235.621 90.3793H224.448V101.552H235.621V90.3793Z" fill="#333333"/>
<path d="M246.793 90.3793H235.621V101.552H246.793V90.3793Z" fill="#333333"/>
<path d="M257.966 90.3793H246.793V101.552H257.966V90.3793Z" fill="#333333"/>
<path d="M280.31 90.3793H269.138V101.552H280.31V90.3793Z" fill="#333333"/>
<path d="M325 90.3793H313.828V101.552H325V90.3793Z" fill="#333333"/>
<path d="M23.3448 101.552H12.1724V112.724H23.3448V101.552Z" fill="#333333"/>
<path d="M45.6897 101.552H34.5172V112.724H45.6897V101.552Z" fill="#333333"/>
<path d="M56.8621 101.552H45.6897V112.724H56.8621V101.552Z" fill="#333333"/>
<path d="M101.552 101.552H90.3793V112.724H101.552V101.552Z" fill="#333333"/>
<path d="M112.724 101.552H101.552V112.724H112.724V101.552Z" fill="#333333"/>
<path d="M190.931 101.552H179.759V112.724H190.931V101.552Z" fill="#333333"/>
<path d="M213.276 101.552H202.103V112.724H213.276V101.552Z" fill="#333333"/>
<path d="M224.448 101.552H213.276V112.724H224.448V101.552Z" fill="#333333"/>
<path d="M235.621 101.552H224.448V112.724H235.621V101.552Z" fill="#333333"/>
<path d="M246.793 101.552H235.621V112.724H246.793V101.552Z" fill="#333333"/>
<path d="M269.138 101.552H257.966V112.724H269.138V101.552Z" fill="#333333"/>
<path d="M291.483 101.552H280.31V112.724H291.483V101.552Z" fill="#333333"/>
<path d="M23.3448 112.724H12.1724V123.897H23.3448V112.724Z" fill="#333333"/>
<path d="M56.8621 112.724H45.6897V123.897H56.8621V112.724Z" fill="#333333"/>
<path d="M68.0345 112.724H56.8621V123.897H68.0345V112.724Z" fill="#333333"/>
<path d="M79.2069 112.724H68.0345V123.897H79.2069V112.724Z" fill="#333333"/>
<path d="M90.3793 112.724H79.2069V123.897H90.3793V112.724Z" fill="#333333"/>
<path d="M101.552 112.724H90.3793V123.897H101.552V112.724Z" fill="#333333"/>
<path d="M112.724 112.724H101.552V123.897H112.724V112.724Z" fill="#333333"/>
<path d="M123.897 112.724H112.724V123.897H123.897V112.724Z" fill="#333333"/>
<path d="M135.069 112.724H123.897V123.897H135.069V112.724Z" fill="#333333"/>
<path d="M168.586 112.724H157.414V123.897H168.586V112.724Z" fill="#333333"/>
<path d="M179.759 112.724H168.586V123.897H179.759V112.724Z" fill="#333333"/>
<path d="M202.103 112.724H190.931V123.897H202.103V112.724Z" fill="#333333"/>
<path d="M224.448 112.724H213.276V123.897H224.448V112.724Z" fill="#333333"/>
<path d="M246.793 112.724H235.621V123.897H246.793V112.724Z" fill="#333333"/>
<path d="M257.966 112.724H246.793V123.897H257.966V112.724Z" fill="#333333"/>
<path d="M280.31 112.724H269.138V123.897H280.31V112.724Z" fill="#333333"/>
<path d="M302.655 112.724H291.483V123.897H302.655V112.724Z" fill="#333333"/>
<path d="M313.828 112.724H302.655V123.897H313.828V112.724Z" fill="#333333"/>
<path d="M325 112.724H313.828V123.897H325V112.724Z" fill="#333333"/>
<path d="M23.3448 123.897H12.1724V135.069H23.3448V123.897Z" fill="#333333"/>
<path d="M56.8621 123.897H45.6897V135.069H56.8621V123.897Z" fill="#333333"/>
<path d="M90.3793 123.897H79.2069V135.069H90.3793V123.897Z" fill="#333333"/>
<path d="M101.552 123.897H90.3793V135.069H101.552V123.897Z" fill="#333333"/>
<path d="M123.897 123.897H112.724V135.069H123.897V123.897Z" fill="#333333"/>
<path d="M135.069 123.897H123.897V135.069H135.069V123.897Z" fill="#333333"/>
<path d="M157.414 123.897H146.241V135.069H157.414V123.897Z" fill="#333333"/>
<path d="M168.586 123.897H157.414V135.069H168.586V123.897Z" fill="#333333"/>
<path d="M190.931 123.897H179.759V135.069H190.931V123.897Z" fill="#333333"/>
<path d="M202.103 123.897H190.931V135.069H202.103V123.897Z" fill="#333333"/>
<path d="M224.448 123.897H213.276V135.069H224.448V123.897Z" fill="#333333"/>
<path d="M246.793 123.897H235.621V135.069H246.793V123.897Z" fill="#333333"/>
<path d="M257.966 123.897H246.793V135.069H257.966V123.897Z" fill="#333333"/>
<path d="M291.483 123.897H280.31V135.069H291.483V123.897Z" fill="#333333"/>
<path d="M302.655 123.897H291.483V135.069H302.655V123.897Z" fill="#333333"/>
<path d="M12.1724 135.069H1V146.241H12.1724V135.069Z" fill="#333333"/>
<path d="M23.3448 135.069H12.1724V146.241H23.3448V135.069Z" fill="#333333"/>
<path d="M34.5172 135.069H23.3448V146.241H34.5172V135.069Z" fill="#333333"/>
<path d="M68.0345 135.069H56.8621V146.241H68.0345V135.069Z" fill="#333333"/>
<path d="M79.2069 135.069H68.0345V146.241H79.2069V135.069Z" fill="#333333"/>
<path d="M90.3793 135.069H79.2069V146.241H90.3793V135.069Z" fill="#333333"/>
<path d="M112.724 135.069H101.552V146.241H112.724V135.069Z" fill="#333333"/>
<path d="M123.897 135.069H112.724V146.241H123.897V135.069Z" fill="#333333"/>
<path d="M135.069 135.069H123.897V146.241H135.069V135.069Z" fill="#333333"/>
<path d="M157.414 135.069H146.241V146.241H157.414V135.069Z" fill="#333333"/>
<path d="M179.759 135.069H168.586V146.241H179.759V135.069Z" fill="#333333"/>
<path d="M202.103 135.069H190.931V146.241H202.103V135.069Z" fill="#333333"/>
<path d="M235.621 135.069H224.448V146.241H235.621V135.069Z" fill="#333333"/>
<path d="M257.966 135.069H246.793V146.241H257.966V135.069Z" fill="#333333"/>
<path d="M269.138 135.069H257.966V146.241H269.138V135.069Z" fill="#333333"/>
<path d="M280.31 135.069H269.138V146.241H280.31V135.069Z" fill="#333333"/>
<path d="M291.483 135.069H280.31V146.241H291.483V135.069Z" fill="#333333"/>
<path d="M325 135.069H313.828V146.241H325V135.069Z" fill="#333333"/>
<path d="M34.5172 146.241H23.3448V157.414H34.5172V146.241Z" fill="#333333"/>
<path d="M56.8621 146.241H45.6897V157.414H56.8621V146.241Z" fill="#333333"/>
<path d="M68.0345 146.241H56.8621V157.414H68.0345V146.241Z" fill="#333333"/>
<path d="M101.552 146.241H90.3793V157.414H101.552V146.241Z" fill="#333333"/>
<path d="M123.897 146.241H112.724V157.414H123.897V146.241Z" fill="#333333"/>
<path d="M135.069 146.241H123.897V157.414H135.069V146.241Z" fill="#333333"/>
<path d="M146.241 146.241H135.069V157.414H146.241V146.241Z" fill="#333333"/>
<path d="M157.414 146.241H146.241V157.414H157.414V146.241Z" fill="#333333"/>
<path d="M190.931 146.241H179.759V157.414H190.931V146.241Z" fill="#333333"/>
<path d="M213.276 146.241H202.103V157.414H213.276V146.241Z" fill="#333333"/>
<path d="M224.448 146.241H213.276V157.414H224.448V146.241Z" fill="#333333"/>
<path d="M235.621 146.241H224.448V157.414H235.621V146.241Z" fill="#333333"/>
<path d="M246.793 146.241H235.621V157.414H246.793V146.241Z" fill="#333333"/>
<path d="M280.31 146.241H269.138V157.414H280.31V146.241Z" fill="#333333"/>
<path d="M291.483 146.241H280.31V157.414H291.483V146.241Z" fill="#333333"/>
<path d="M313.828 146.241H302.655V157.414H313.828V146.241Z" fill="#333333"/>
<path d="M45.6897 157.414H34.5172V168.586H45.6897V157.414Z" fill="#333333"/>
<path d="M56.8621 157.414H45.6897V168.586H56.8621V157.414Z" fill="#333333"/>
<path d="M68.0345 157.414H56.8621V168.586H68.0345V157.414Z" fill="#333333"/>
<path d="M79.2069 157.414H68.0345V168.586H79.2069V157.414Z" fill="#333333"/>
<path d="M90.3793 157.414H79.2069V168.586H90.3793V157.414Z" fill="#333333"/>
<path d="M101.552 157.414H90.3793V168.586H101.552V157.414Z" fill="#333333"/>
<path d="M123.897 157.414H112.724V168.586H123.897V157.414Z" fill="#333333"/>
<path d="M157.414 157.414H146.241V168.586H157.414V157.414Z" fill="#333333"/>
<path d="M179.759 157.414H168.586V168.586H179.759V157.414Z" fill="#333333"/>
<path d="M190.931 157.414H179.759V168.586H190.931V157.414Z" fill="#333333"/>
<path d="M213.276 157.414H202.103V168.586H213.276V157.414Z" fill="#333333"/>
<path d="M246.793 157.414H235.621V168.586H246.793V157.414Z" fill="#333333"/>
<path d="M269.138 157.414H257.966V168.586H269.138V157.414Z" fill="#333333"/>
<path d="M280.31 157.414H269.138V168.586H280.31V157.414Z" fill="#333333"/>
<path d="M34.5172 168.586H23.3448V179.759H34.5172V168.586Z" fill="#333333"/>
<path d="M45.6897 168.586H34.5172V179.759H45.6897V168.586Z" fill="#333333"/>
<path d="M68.0345 168.586H56.8621V179.759H68.0345V168.586Z" fill="#333333"/>
<path d="M101.552 168.586H90.3793V179.759H101.552V168.586Z" fill="#333333"/>
<path d="M123.897 168.586H112.724V179.759H123.897V168.586Z" fill="#333333"/>
<path d="M135.069 168.586H123.897V179.759H135.069V168.586Z" fill="#333333"/>
<path d="M190.931 168.586H179.759V179.759H190.931V168.586Z" fill="#333333"/>
<path d="M213.276 168.586H202.103V179.759H213.276V168.586Z" fill="#333333"/>
<path d="M224.448 168.586H213.276V179.759H224.448V168.586Z" fill="#333333"/>
<path d="M280.31 168.586H269.138V179.759H280.31V168.586Z" fill="#333333"/>
<path d="M302.655 168.586H291.483V179.759H302.655V168.586Z" fill="#333333"/>
<path d="M313.828 168.586H302.655V179.759H313.828V168.586Z" fill="#333333"/>
<path d="M23.3448 179.759H12.1724V190.931H23.3448V179.759Z" fill="#333333"/>
<path d="M34.5172 179.759H23.3448V190.931H34.5172V179.759Z" fill="#333333"/>
<path d="M45.6897 179.759H34.5172V190.931H45.6897V179.759Z" fill="#333333"/>
<path d="M56.8621 179.759H45.6897V190.931H56.8621V179.759Z" fill="#333333"/>
<path d="M79.2069 179.759H68.0345V190.931H79.2069V179.759Z" fill="#333333"/>
<path d="M101.552 179.759H90.3793V190.931H101.552V179.759Z" fill="#333333"/>
<path d="M135.069 179.759H123.897V190.931H135.069V179.759Z" fill="#333333"/>
<path d="M157.414 179.759H146.241V190.931H157.414V179.759Z" fill="#333333"/>
<path d="M168.586 179.759H157.414V190.931H168.586V179.759Z" fill="#333333"/>
<path d="M190.931 179.759H179.759V190.931H190.931V179.759Z" fill="#333333"/>
<path d="M224.448 179.759H213.276V190.931H224.448V179.759Z" fill="#333333"/>
<path d="M246.793 179.759H235.621V190.931H246.793V179.759Z" fill="#333333"/>
<path d="M257.966 179.759H246.793V190.931H257.966V179.759Z" fill="#333333"/>
<path d="M280.31 179.759H269.138V190.931H280.31V179.759Z" fill="#333333"/>
<path d="M313.828 179.759H302.655V190.931H313.828V179.759Z" fill="#333333"/>
<path d="M34.5172 190.931H23.3448V202.103H34.5172V190.931Z" fill="#333333"/>
<path d="M45.6897 190.931H34.5172V202.103H45.6897V190.931Z" fill="#333333"/>
<path d="M68.0345 190.931H56.8621V202.103H68.0345V190.931Z" fill="#333333"/>
<path d="M90.3793 190.931H79.2069V202.103H90.3793V190.931Z" fill="#333333"/>
<path d="M112.724 190.931H101.552V202.103H112.724V190.931Z" fill="#333333"/>
<path d="M168.586 190.931H157.414V202.103H168.586V190.931Z" fill="#333333"/>
<path d="M179.759 190.931H168.586V202.103H179.759V190.931Z" fill="#333333"/>
<path d="M202.103 190.931H190.931V202.103H202.103V190.931Z" fill="#333333"/>
<path d="M257.966 190.931H246.793V202.103H257.966V190.931Z" fill="#333333"/>
<path d="M269.138 190.931H257.966V202.103H269.138V190.931Z" fill="#333333"/>
<path d="M291.483 190.931H280.31V202.103H291.483V190.931Z" fill="#333333"/>
<path d="M12.1724 202.103H1V213.276H12.1724V202.103Z" fill="#333333"/>
<path d="M34.5172 202.103H23.3448V213.276H34.5172V202.103Z" fill="#333333"/>
<path d="M45.6897 202.103H34.5172V213.276H45.6897V202.103Z" fill="#333333"/>
<path d="M56.8621 202.103H45.6897V213.276H56.8621V202.103Z" fill="#333333"/>
<path d="M68.0345 202.103H56.8621V213.276H68.0345V202.103Z" fill="#333333"/>
<path d="M79.2069 202.103H68.0345V213.276H79.2069V202.103Z" fill="#333333"/>
<path d="M101.552 202.103H90.3793V213.276H101.552V202.103Z" fill="#333333"/>
<path d="M112.724 202.103H101.552V213.276H112.724V202.103Z" fill="#333333"/>
<path d="M123.897 202.103H112.724V213.276H123.897V202.103Z" fill="#333333"/>
<path d="M157.414 202.103H146.241V213.276H157.414V202.103Z" fill="#333333"/>
<path d="M179.759 202.103H168.586V213.276H179.759V202.103Z" fill="#333333"/>
<path d="M190.931 202.103H179.759V213.276H190.931V202.103Z" fill="#333333"/>
<path d="M213.276 202.103H202.103V213.276H213.276V202.103Z" fill="#333333"/>
<path d="M246.793 202.103H235.621V213.276H246.793V202.103Z" fill="#333333"/>
<path d="M269.138 202.103H257.966V213.276H269.138V202.103Z" fill="#333333"/>
<path d="M280.31 202.103H269.138V213.276H280.31V202.103Z" fill="#333333"/>
<path d="M302.655 202.103H291.483V213.276H302.655V202.103Z" fill="#333333"/>
<path d="M12.1724 213.276H1V224.448H12.1724V213.276Z" fill="#333333"/>
<path d="M23.3448 213.276H12.1724V224.448H23.3448V213.276Z" fill="#333333"/>
<path d="M34.5172 213.276H23.3448V224.448H34.5172V213.276Z" fill="#333333"/>
<path d="M68.0345 213.276H56.8621V224.448H68.0345V213.276Z" fill="#333333"/>
<path d="M101.552 213.276H90.3793V224.448H101.552V213.276Z" fill="#333333"/>
<path d="M135.069 213.276H123.897V224.448H135.069V213.276Z" fill="#333333"/>
<path d="M202.103 213.276H190.931V224.448H202.103V213.276Z" fill="#333333"/>
<path d="M224.448 213.276H213.276V224.448H224.448V213.276Z" fill="#333333"/>
<path d="M235.621 213.276H224.448V224.448H235.621V213.276Z" fill="#333333"/>
<path d="M257.966 213.276H246.793V224.448H257.966V213.276Z" fill="#333333"/>
<path d="M280.31 213.276H269.138V224.448H280.31V213.276Z" fill="#333333"/>
<path d="M302.655 213.276H291.483V224.448H302.655V213.276Z" fill="#333333"/>
<path d="M325 213.276H313.828V224.448H325V213.276Z" fill="#333333"/>
<path d="M45.6897 224.448H34.5172V235.621H45.6897V224.448Z" fill="#333333"/>
<path d="M79.2069 224.448H68.0345V235.621H79.2069V224.448Z" fill="#333333"/>
<path d="M90.3793 224.448H79.2069V235.621H90.3793V224.448Z" fill="#333333"/>
<path d="M101.552 224.448H90.3793V235.621H101.552V224.448Z" fill="#333333"/>
<path d="M123.897 224.448H112.724V235.621H123.897V224.448Z" fill="#333333"/>
<path d="M135.069 224.448H123.897V235.621H135.069V224.448Z" fill="#333333"/>
<path d="M146.241 224.448H135.069V235.621H146.241V224.448Z" fill="#333333"/>
<path d="M213.276 224.448H202.103V235.621H213.276V224.448Z" fill="#333333"/>
<path d="M235.621 224.448H224.448V235.621H235.621V224.448Z" fill="#333333"/>
<path d="M246.793 224.448H235.621V235.621H246.793V224.448Z" fill="#333333"/>
<path d="M257.966 224.448H246.793V235.621H257.966V224.448Z" fill="#333333"/>
<path d="M269.138 224.448H257.966V235.621H269.138V224.448Z" fill="#333333"/>
<path d="M280.31 224.448H269.138V235.621H280.31V224.448Z" fill="#333333"/>
<path d="M302.655 224.448H291.483V235.621H302.655V224.448Z" fill="#333333"/>
<path d="M313.828 224.448H302.655V235.621H313.828V224.448Z" fill="#333333"/>
<path d="M325 224.448H313.828V235.621H325V224.448Z" fill="#333333"/>
<path d="M101.552 235.621H90.3793V246.793H101.552V235.621Z" fill="#333333"/>
<path d="M179.759 235.621H168.586V246.793H179.759V235.621Z" fill="#333333"/>
<path d="M190.931 235.621H179.759V246.793H190.931V235.621Z" fill="#333333"/>
<path d="M213.276 235.621H202.103V246.793H213.276V235.621Z" fill="#333333"/>
<path d="M235.621 235.621H224.448V246.793H235.621V235.621Z" fill="#333333"/>
<path d="M280.31 235.621H269.138V246.793H280.31V235.621Z" fill="#333333"/>
<path d="M291.483 235.621H280.31V246.793H291.483V235.621Z" fill="#333333"/>
<path d="M302.655 235.621H291.483V246.793H302.655V235.621Z" fill="#333333"/>
<path d="M325 235.621H313.828V246.793H325V235.621Z" fill="#333333"/>
<path d="M12.1724 246.793H1V257.966H12.1724V246.793Z" fill="#333333"/>
<path d="M23.3448 246.793H12.1724V257.966H23.3448V246.793Z" fill="#333333"/>
<path d="M34.5172 246.793H23.3448V257.966H34.5172V246.793Z" fill="#333333"/>
<path d="M45.6897 246.793H34.5172V257.966H45.6897V246.793Z" fill="#333333"/>
<path d="M56.8621 246.793H45.6897V257.966H56.8621V246.793Z" fill="#333333"/>
<path d="M68.0345 246.793H56.8621V257.966H68.0345V246.793Z" fill="#333333"/>
<path d="M79.2069 246.793H68.0345V257.966H79.2069V246.793Z" fill="#333333"/>
<path d="M101.552 246.793H90.3793V257.966H101.552V246.793Z" fill="#333333"/>
<path d="M112.724 246.793H101.552V257.966H112.724V246.793Z" fill="#333333"/>
<path d="M123.897 246.793H112.724V257.966H123.897V246.793Z" fill="#333333"/>
<path d="M135.069 246.793H123.897V257.966H135.069V246.793Z" fill="#333333"/>
<path d="M157.414 246.793H146.241V257.966H157.414V246.793Z" fill="#333333"/>
<path d="M202.103 246.793H190.931V257.966H202.103V246.793Z" fill="#333333"/>
<path d="M213.276 246.793H202.103V257.966H213.276V246.793Z" fill="#333333"/>
<path d="M235.621 246.793H224.448V257.966H235.621V246.793Z" fill="#333333"/>
<path d="M257.966 246.793H246.793V257.966H257.966V246.793Z" fill="#333333"/>
<path d="M280.31 246.793H269.138V257.966H280.31V246.793Z" fill="#333333"/>
<path d="M325 246.793H313.828V257.966H325V246.793Z" fill="#333333"/>
<path d="M12.1724 257.966H1V269.138H12.1724V257.966Z" fill="#333333"/>
<path d="M79.2069 257.966H68.0345V269.138H79.2069V257.966Z" fill="#333333"/>
<path d="M101.552 257.966H90.3793V269.138H101.552V257.966Z" fill="#333333"/>
<path d="M112.724 257.966H101.552V269.138H112.724V257.966Z" fill="#333333"/>
<path d="M123.897 257.966H112.724V269.138H123.897V257.966Z" fill="#333333"/>
<path d="M157.414 257.966H146.241V269.138H157.414V257.966Z" fill="#333333"/>
<path d="M168.586 257.966H157.414V269.138H168.586V257.966Z" fill="#333333"/>
<path d="M179.759 257.966H168.586V269.138H179.759V257.966Z" fill="#333333"/>
<path d="M190.931 257.966H179.759V269.138H190.931V257.966Z" fill="#333333"/>
<path d="M202.103 257.966H190.931V269.138H202.103V257.966Z" fill="#333333"/>
<path d="M213.276 257.966H202.103V269.138H213.276V257.966Z" fill="#333333"/>
<path d="M224.448 257.966H213.276V269.138H224.448V257.966Z" fill="#333333"/>
<path d="M235.621 257.966H224.448V269.138H235.621V257.966Z" fill="#333333"/>
<path d="M280.31 257.966H269.138V269.138H280.31V257.966Z" fill="#333333"/>
<path d="M291.483 257.966H280.31V269.138H291.483V257.966Z" fill="#333333"/>
<path d="M12.1724 269.138H1V280.31H12.1724V269.138Z" fill="#333333"/>
<path d="M34.5172 269.138H23.3448V280.31H34.5172V269.138Z" fill="#333333"/>
<path d="M45.6897 269.138H34.5172V280.31H45.6897V269.138Z" fill="#333333"/>
<path d="M56.8621 269.138H45.6897V280.31H56.8621V269.138Z" fill="#333333"/>
<path d="M79.2069 269.138H68.0345V280.31H79.2069V269.138Z" fill="#333333"/>
<path d="M101.552 269.138H90.3793V280.31H101.552V269.138Z" fill="#333333"/>
<path d="M112.724 269.138H101.552V280.31H112.724V269.138Z" fill="#333333"/>
<path d="M135.069 269.138H123.897V280.31H135.069V269.138Z" fill="#333333"/>
<path d="M157.414 269.138H146.241V280.31H157.414V269.138Z" fill="#333333"/>
<path d="M202.103 269.138H190.931V280.31H202.103V269.138Z" fill="#333333"/>
<path d="M235.621 269.138H224.448V280.31H235.621V269.138Z" fill="#333333"/>
<path d="M246.793 269.138H235.621V280.31H246.793V269.138Z" fill="#333333"/>
<path d="M257.966 269.138H246.793V280.31H257.966V269.138Z" fill="#333333"/>
<path d="M269.138 269.138H257.966V280.31H269.138V269.138Z" fill="#333333"/>
<path d="M280.31 269.138H269.138V280.31H280.31V269.138Z" fill="#333333"/>
<path d="M325 269.138H313.828V280.31H325V269.138Z" fill="#333333"/>
<path d="M12.1724 280.31H1V291.483H12.1724V280.31Z" fill="#333333"/>
<path d="M34.5172 280.31H23.3448V291.483H34.5172V280.31Z" fill="#333333"/>
<path d="M45.6897 280.31H34.5172V291.483H45.6897V280.31Z" fill="#333333"/>
<path d="M56.8621 280.31H45.6897V291.483H56.8621V280.31Z" fill="#333333"/>
<path d="M79.2069 280.31H68.0345V291.483H79.2069V280.31Z" fill="#333333"/>
<path d="M101.552 280.31H90.3793V291.483H101.552V280.31Z" fill="#333333"/>
<path d="M112.724 280.31H101.552V291.483H112.724V280.31Z" fill="#333333"/>
<path d="M135.069 280.31H123.897V291.483H135.069V280.31Z" fill="#333333"/>
<path d="M157.414 280.31H146.241V291.483H157.414V280.31Z" fill="#333333"/>
<path d="M168.586 280.31H157.414V291.483H168.586V280.31Z" fill="#333333"/>
<path d="M202.103 280.31H190.931V291.483H202.103V280.31Z" fill="#333333"/>
<path d="M235.621 280.31H224.448V291.483H235.621V280.31Z" fill="#333333"/>
<path d="M257.966 280.31H246.793V291.483H257.966V280.31Z" fill="#333333"/>
<path d="M280.31 280.31H269.138V291.483H280.31V280.31Z" fill="#333333"/>
<path d="M302.655 280.31H291.483V291.483H302.655V280.31Z" fill="#333333"/>
<path d="M313.828 280.31H302.655V291.483H313.828V280.31Z" fill="#333333"/>
<path d="M325 280.31H313.828V291.483H325V280.31Z" fill="#333333"/>
<path d="M12.1724 291.483H1V302.655H12.1724V291.483Z" fill="#333333"/>
<path d="M34.5172 291.483H23.3448V302.655H34.5172V291.483Z" fill="#333333"/>
<path d="M45.6897 291.483H34.5172V302.655H45.6897V291.483Z" fill="#333333"/>
<path d="M56.8621 291.483H45.6897V302.655H56.8621V291.483Z" fill="#333333"/>
<path d="M79.2069 291.483H68.0345V302.655H79.2069V291.483Z" fill="#333333"/>
<path d="M112.724 291.483H101.552V302.655H112.724V291.483Z" fill="#333333"/>
<path d="M157.414 291.483H146.241V302.655H157.414V291.483Z" fill="#333333"/>
<path d="M168.586 291.483H157.414V302.655H168.586V291.483Z" fill="#333333"/>
<path d="M213.276 291.483H202.103V302.655H213.276V291.483Z" fill="#333333"/>
<path d="M257.966 291.483H246.793V302.655H257.966V291.483Z" fill="#333333"/>
<path d="M302.655 291.483H291.483V302.655H302.655V291.483Z" fill="#333333"/>
<path d="M12.1724 302.655H1V313.828H12.1724V302.655Z" fill="#333333"/>
<path d="M79.2069 302.655H68.0345V313.828H79.2069V302.655Z" fill="#333333"/>
<path d="M112.724 302.655H101.552V313.828H112.724V302.655Z" fill="#333333"/>
<path d="M135.069 302.655H123.897V313.828H135.069V302.655Z" fill="#333333"/>
<path d="M146.241 302.655H135.069V313.828H146.241V302.655Z" fill="#333333"/>
<path d="M157.414 302.655H146.241V313.828H157.414V302.655Z" fill="#333333"/>
<path d="M179.759 302.655H168.586V313.828H179.759V302.655Z" fill="#333333"/>
<path d="M190.931 302.655H179.759V313.828H190.931V302.655Z" fill="#333333"/>
<path d="M202.103 302.655H190.931V313.828H202.103V302.655Z" fill="#333333"/>
<path d="M224.448 302.655H213.276V313.828H224.448V302.655Z" fill="#333333"/>
<path d="M269.138 302.655H257.966V313.828H269.138V302.655Z" fill="#333333"/>
<path d="M291.483 302.655H280.31V313.828H291.483V302.655Z" fill="#333333"/>
<path d="M302.655 302.655H291.483V313.828H302.655V302.655Z" fill="#333333"/>
<path d="M313.828 302.655H302.655V313.828H313.828V302.655Z" fill="#333333"/>
<path d="M325 302.655H313.828V313.828H325V302.655Z" fill="#333333"/>
<path d="M12.1724 313.828H1V325H12.1724V313.828Z" fill="#333333"/>
<path d="M23.3448 313.828H12.1724V325H23.3448V313.828Z" fill="#333333"/>
<path d="M34.5172 313.828H23.3448V325H34.5172V313.828Z" fill="#333333"/>
<path d="M45.6897 313.828H34.5172V325H45.6897V313.828Z" fill="#333333"/>
<path d="M56.8621 313.828H45.6897V325H56.8621V313.828Z" fill="#333333"/>
<path d="M68.0345 313.828H56.8621V325H68.0345V313.828Z" fill="#333333"/>
<path d="M79.2069 313.828H68.0345V325H79.2069V313.828Z" fill="#333333"/>
<path d="M101.552 313.828H90.3793V325H101.552V313.828Z" fill="#333333"/>
<path d="M112.724 313.828H101.552V325H112.724V313.828Z" fill="#333333"/>
<path d="M123.897 313.828H112.724V325H123.897V313.828Z" fill="#333333"/>
<path d="M135.069 313.828H123.897V325H135.069V313.828Z" fill="#333333"/>
<path d="M157.414 313.828H146.241V325H157.414V313.828Z" fill="#333333"/>
<path d="M168.586 313.828H157.414V325H168.586V313.828Z" fill="#333333"/>
<path d="M179.759 313.828H168.586V325H179.759V313.828Z" fill="#333333"/>
<path d="M202.103 313.828H190.931V325H202.103V313.828Z" fill="#333333"/>
<path d="M213.276 313.828H202.103V325H213.276V313.828Z" fill="#333333"/>
<path d="M224.448 313.828H213.276V325H224.448V313.828Z" fill="#333333"/>
<path d="M235.621 313.828H224.448V325H235.621V313.828Z" fill="#333333"/>
<path d="M246.793 313.828H235.621V325H246.793V313.828Z" fill="#333333"/>
<path d="M257.966 313.828H246.793V325H257.966V313.828Z" fill="#333333"/>
<path d="M269.138 313.828H257.966V325H269.138V313.828Z" fill="#333333"/>
<path d="M280.31 313.828H269.138V325H280.31V313.828Z" fill="#333333"/>
<path d="M302.655 313.828H291.483V325H302.655V313.828Z" fill="#333333"/>
<path d="M313.828 313.828H302.655V325H313.828V313.828Z" fill="#333333"/>
<path d="M12.1724 1H1V12.1724M12.1724 1V12.1724M12.1724 1H23.3448M12.1724 12.1724H1M12.1724 12.1724H23.3448M12.1724 12.1724V23.3448M1 12.1724V23.3448M23.3448 1V12.1724M23.3448 1H34.5172M23.3448 12.1724H34.5172M34.5172 1V12.1724M34.5172 1H45.6897M34.5172 12.1724H45.6897M45.6897 1V12.1724M45.6897 1H56.8621M45.6897 12.1724H56.8621M56.8621 1V12.1724M56.8621 1H68.0345M56.8621 12.1724H68.0345M68.0345 1V12.1724M68.0345 1H79.2069V12.1724M68.0345 12.1724H79.2069M68.0345 12.1724V23.3448M79.2069 12.1724V23.3448M101.552 12.1724V1H90.3793V12.1724H101.552ZM101.552 12.1724H112.724M101.552 12.1724V23.3448H112.724M179.759 12.1724V1H168.586V12.1724M179.759 12.1724H168.586M179.759 12.1724V23.3448M179.759 12.1724H190.931M168.586 12.1724V23.3448M202.103 12.1724V1H190.931V12.1724M202.103 12.1724H190.931M202.103 12.1724V23.3448M190.931 12.1724V23.3448M235.621 12.1724V1H224.448V12.1724M235.621 12.1724H224.448M235.621 12.1724V23.3448H224.448M224.448 12.1724V23.3448M257.966 1H246.793V12.1724M257.966 1V12.1724M257.966 1H269.138M257.966 12.1724H246.793M257.966 12.1724H269.138M257.966 12.1724V23.3448M246.793 12.1724V23.3448M269.138 1V12.1724M269.138 1H280.31M269.138 12.1724H280.31M280.31 1V12.1724M280.31 1H291.483M280.31 12.1724H291.483M291.483 1V12.1724M291.483 1H302.655M291.483 12.1724H302.655M302.655 1V12.1724M302.655 1H313.828M302.655 12.1724H313.828M313.828 1V12.1724M313.828 1H325V12.1724M313.828 12.1724H325M313.828 12.1724V23.3448M325 12.1724V23.3448M12.1724 23.3448H1M12.1724 23.3448V34.5172M1 23.3448V34.5172M79.2069 23.3448H68.0345M79.2069 23.3448V34.5172M68.0345 23.3448V34.5172M112.724 12.1724V23.3448M112.724 12.1724H123.897M112.724 23.3448H123.897M123.897 12.1724V23.3448M123.897 12.1724H135.069V23.3448M123.897 23.3448H135.069M123.897 23.3448V34.5172M135.069 23.3448V34.5172M135.069 23.3448H146.241M179.759 23.3448H168.586M179.759 23.3448H190.931M179.759 23.3448V34.5172M168.586 23.3448H157.414M168.586 23.3448V34.5172M190.931 23.3448H202.103M190.931 23.3448V34.5172M202.103 23.3448H213.276M202.103 23.3448V34.5172M224.448 23.3448H213.276M224.448 23.3448V34.5172M257.966 23.3448H246.793M257.966 23.3448V34.5172M246.793 23.3448V34.5172M325 23.3448H313.828M325 23.3448V34.5172M313.828 23.3448V34.5172M12.1724 34.5172H1M12.1724 34.5172V45.6897M1 34.5172V45.6897M34.5172 23.3448H23.3448V34.5172M34.5172 23.3448V34.5172M34.5172 23.3448H45.6897M34.5172 34.5172H23.3448M34.5172 34.5172H45.6897M34.5172 34.5172V45.6897M23.3448 34.5172V45.6897M45.6897 23.3448V34.5172M45.6897 23.3448H56.8621V34.5172M45.6897 34.5172H56.8621M45.6897 34.5172V45.6897M56.8621 34.5172V45.6897M79.2069 34.5172H68.0345M79.2069 34.5172V45.6897M68.0345 34.5172V45.6897M135.069 34.5172H123.897M135.069 34.5172H146.241M135.069 34.5172V45.6897M123.897 34.5172H112.724M123.897 34.5172V45.6897H112.724M146.241 23.3448V34.5172M146.241 23.3448H157.414M146.241 34.5172H157.414M146.241 34.5172V45.6897M157.414 23.3448V34.5172M157.414 34.5172H168.586M157.414 34.5172V45.6897H168.586M168.586 34.5172H179.759M168.586 34.5172V45.6897M179.759 34.5172H190.931M179.759 34.5172V45.6897M190.931 34.5172V45.6897M190.931 34.5172H202.103M213.276 23.3448V34.5172M213.276 34.5172H202.103M213.276 34.5172H224.448M213.276 34.5172V45.6897M202.103 34.5172V45.6897M224.448 34.5172V45.6897M224.448 34.5172H235.621V45.6897H224.448M257.966 34.5172H246.793M257.966 34.5172V45.6897M246.793 34.5172V45.6897M280.31 23.3448H269.138V34.5172M280.31 23.3448V34.5172M280.31 23.3448H291.483M280.31 34.5172H269.138M280.31 34.5172H291.483M280.31 34.5172V45.6897M269.138 34.5172V45.6897M291.483 23.3448V34.5172M291.483 23.3448H302.655V34.5172M291.483 34.5172H302.655M291.483 34.5172V45.6897M302.655 34.5172V45.6897M325 34.5172H313.828M325 34.5172V45.6897M313.828 34.5172V45.6897M12.1724 45.6897H1M12.1724 45.6897V56.8621M1 45.6897V56.8621M34.5172 45.6897H23.3448M34.5172 45.6897H45.6897M34.5172 45.6897V56.8621M23.3448 45.6897V56.8621H34.5172M45.6897 45.6897H56.8621M45.6897 45.6897V56.8621M56.8621 45.6897V56.8621H45.6897M79.2069 45.6897H68.0345M79.2069 45.6897V56.8621M68.0345 45.6897V56.8621M112.724 34.5172H101.552V45.6897M112.724 34.5172V45.6897M112.724 45.6897H101.552M112.724 45.6897V56.8621H101.552M101.552 45.6897H90.3793V56.8621H101.552M101.552 45.6897V56.8621M146.241 45.6897H135.069M146.241 45.6897V56.8621M135.069 45.6897V56.8621M168.586 45.6897H179.759M168.586 45.6897V56.8621M179.759 45.6897H190.931M179.759 45.6897V56.8621M190.931 45.6897H202.103M190.931 45.6897V56.8621M202.103 45.6897H213.276M213.276 45.6897H224.448M257.966 45.6897H246.793M257.966 45.6897V56.8621M246.793 45.6897V56.8621M280.31 45.6897H269.138M280.31 45.6897H291.483M280.31 45.6897V56.8621M269.138 45.6897V56.8621H280.31M291.483 45.6897H302.655M291.483 45.6897V56.8621M302.655 45.6897V56.8621H291.483M325 45.6897H313.828M325 45.6897V56.8621M313.828 45.6897V56.8621M12.1724 56.8621H1M12.1724 56.8621V68.0345M1 56.8621V68.0345M34.5172 56.8621H45.6897M79.2069 56.8621H68.0345M79.2069 56.8621V68.0345M68.0345 56.8621V68.0345M146.241 56.8621H135.069M146.241 56.8621H157.414M146.241 56.8621V68.0345M135.069 56.8621H123.897V68.0345M135.069 56.8621V68.0345M179.759 56.8621H168.586M179.759 56.8621H190.931M179.759 56.8621V68.0345M168.586 56.8621H157.414M168.586 56.8621V68.0345M190.931 56.8621H202.103V68.0345M190.931 56.8621V68.0345M257.966 56.8621H246.793M257.966 56.8621V68.0345M246.793 56.8621V68.0345M280.31 56.8621H291.483M325 56.8621H313.828M325 56.8621V68.0345M313.828 56.8621V68.0345M12.1724 68.0345H1M12.1724 68.0345V79.2069M12.1724 68.0345H23.3448M1 68.0345V79.2069H12.1724M79.2069 68.0345H68.0345M79.2069 68.0345V79.2069H68.0345M68.0345 68.0345H56.8621M68.0345 68.0345V79.2069M135.069 68.0345H123.897M135.069 68.0345H146.241M135.069 68.0345V79.2069M123.897 68.0345H112.724V79.2069M123.897 68.0345V79.2069M157.414 56.8621V68.0345M157.414 68.0345H146.241M157.414 68.0345H168.586M157.414 68.0345V79.2069M146.241 68.0345V79.2069M168.586 68.0345H179.759M168.586 68.0345V79.2069H157.414M179.759 68.0345H190.931M179.759 68.0345V79.2069M202.103 68.0345H190.931M202.103 68.0345H213.276M202.103 68.0345V79.2069M190.931 68.0345V79.2069M224.448 56.8621H213.276V68.0345M224.448 56.8621V68.0345M224.448 56.8621H235.621V68.0345M224.448 68.0345H213.276M224.448 68.0345H235.621M224.448 68.0345V79.2069M213.276 68.0345V79.2069M235.621 68.0345V79.2069M257.966 68.0345H246.793M257.966 68.0345V79.2069M257.966 68.0345H269.138M246.793 68.0345V79.2069H257.966M325 68.0345H313.828M325 68.0345V79.2069H313.828M313.828 68.0345H302.655M313.828 68.0345V79.2069M12.1724 79.2069H23.3448M23.3448 68.0345V79.2069M23.3448 68.0345H34.5172M23.3448 79.2069H34.5172M34.5172 68.0345V79.2069M34.5172 68.0345H45.6897M34.5172 79.2069H45.6897M45.6897 68.0345V79.2069M45.6897 68.0345H56.8621M45.6897 79.2069H56.8621M56.8621 68.0345V79.2069M56.8621 79.2069H68.0345M101.552 79.2069V68.0345H90.3793V79.2069M101.552 79.2069H90.3793M101.552 79.2069V90.3793M101.552 79.2069H112.724M90.3793 79.2069V90.3793M123.897 79.2069H112.724M123.897 79.2069H135.069M123.897 79.2069V90.3793M112.724 79.2069V90.3793M146.241 79.2069H135.069M146.241 79.2069V90.3793M146.241 79.2069H157.414M135.069 79.2069V90.3793M157.414 79.2069V90.3793M190.931 79.2069H179.759M190.931 79.2069V90.3793M190.931 79.2069H202.103M179.759 79.2069V90.3793M213.276 79.2069H202.103M213.276 79.2069H224.448M213.276 79.2069V90.3793M202.103 79.2069V90.3793M235.621 79.2069H224.448M235.621 79.2069V90.3793M224.448 79.2069V90.3793M257.966 79.2069H269.138M269.138 68.0345V79.2069M269.138 68.0345H280.31M269.138 79.2069H280.31M280.31 68.0345V79.2069M280.31 68.0345H291.483M280.31 79.2069H291.483M291.483 68.0345V79.2069M291.483 68.0345H302.655M291.483 79.2069H302.655M302.655 68.0345V79.2069M302.655 79.2069H313.828M101.552 90.3793H90.3793M101.552 90.3793H112.724M101.552 90.3793V101.552M90.3793 90.3793H79.2069M90.3793 90.3793V101.552M112.724 90.3793H123.897M112.724 90.3793V101.552M135.069 90.3793H123.897M135.069 90.3793H146.241M135.069 90.3793V101.552M123.897 90.3793V101.552M146.241 90.3793H157.414M146.241 90.3793V101.552M157.414 90.3793V101.552H146.241M190.931 90.3793H179.759M190.931 90.3793H202.103M179.759 90.3793H168.586V101.552H179.759M179.759 90.3793V101.552M202.103 90.3793H213.276M202.103 90.3793V101.552M224.448 90.3793H213.276M224.448 90.3793H235.621M224.448 90.3793V101.552M213.276 90.3793V101.552M235.621 90.3793V101.552M235.621 90.3793H246.793M12.1724 101.552V90.3793H1V101.552H12.1724ZM12.1724 101.552H23.3448V112.724M12.1724 101.552V112.724M45.6897 90.3793H34.5172V101.552M45.6897 90.3793V101.552M45.6897 90.3793H56.8621M45.6897 101.552H34.5172M45.6897 101.552H56.8621M45.6897 101.552V112.724M34.5172 101.552V112.724H45.6897M56.8621 90.3793V101.552M56.8621 90.3793H68.0345M56.8621 101.552H68.0345M56.8621 101.552V112.724M68.0345 90.3793V101.552M68.0345 90.3793H79.2069M68.0345 101.552H79.2069M79.2069 90.3793V101.552M79.2069 101.552H90.3793M90.3793 101.552H101.552M90.3793 101.552V112.724M101.552 101.552V112.724M101.552 101.552H112.724M123.897 101.552H112.724M123.897 101.552H135.069M112.724 101.552V112.724M135.069 101.552H146.241M179.759 101.552H190.931V112.724M179.759 101.552V112.724M213.276 101.552H202.103M213.276 101.552V112.724M213.276 101.552H224.448M202.103 101.552V112.724M235.621 101.552H224.448M235.621 101.552H246.793M235.621 101.552V112.724M224.448 101.552V112.724M246.793 90.3793V101.552M246.793 90.3793H257.966V101.552M246.793 101.552H257.966M246.793 101.552V112.724M257.966 101.552H269.138M257.966 101.552V112.724M280.31 101.552V90.3793H269.138V101.552M280.31 101.552H269.138M280.31 101.552H291.483V112.724M280.31 101.552V112.724M269.138 101.552V112.724M23.3448 112.724H12.1724M23.3448 112.724V123.897M12.1724 112.724V123.897M45.6897 112.724H56.8621M45.6897 112.724V123.897M56.8621 112.724V123.897M56.8621 112.724H68.0345M101.552 112.724H90.3793M101.552 112.724H112.724M101.552 112.724V123.897M90.3793 112.724H79.2069M90.3793 112.724V123.897M112.724 112.724V123.897M112.724 112.724H123.897M190.931 112.724H179.759M190.931 112.724H202.103M190.931 112.724V123.897M179.759 112.724H168.586M179.759 112.724V123.897M213.276 112.724H202.103M213.276 112.724H224.448M213.276 112.724V123.897M202.103 112.724V123.897M224.448 112.724H235.621M224.448 112.724V123.897M235.621 112.724H246.793M235.621 112.724V123.897M246.793 112.724V123.897M246.793 112.724H257.966M269.138 112.724H257.966M269.138 112.724H280.31M269.138 112.724V123.897H280.31M257.966 112.724V123.897M291.483 112.724H280.31M291.483 112.724H302.655M291.483 112.724V123.897M280.31 112.724V123.897M23.3448 123.897H12.1724M23.3448 123.897V135.069M12.1724 123.897V135.069M56.8621 123.897H45.6897M56.8621 123.897H68.0345M56.8621 123.897V135.069M45.6897 123.897V135.069H56.8621M68.0345 112.724V123.897M68.0345 112.724H79.2069M68.0345 123.897H79.2069M79.2069 112.724V123.897M79.2069 123.897H90.3793M79.2069 123.897V135.069M90.3793 123.897H101.552M90.3793 123.897V135.069M101.552 123.897H112.724M101.552 123.897V135.069M112.724 123.897H123.897M112.724 123.897V135.069M123.897 112.724V123.897M123.897 112.724H135.069V123.897M123.897 123.897H135.069M123.897 123.897V135.069M135.069 123.897V135.069M168.586 112.724H157.414V123.897M168.586 112.724V123.897M168.586 123.897H157.414M168.586 123.897H179.759M168.586 123.897V135.069M157.414 123.897H146.241V135.069M157.414 123.897V135.069M179.759 123.897H190.931M179.759 123.897V135.069M202.103 123.897H190.931M202.103 123.897V135.069M190.931 123.897V135.069M224.448 123.897H213.276M224.448 123.897V135.069M213.276 123.897V135.069H224.448M246.793 123.897H235.621M246.793 123.897H257.966M246.793 123.897V135.069M235.621 123.897V135.069M257.966 123.897V135.069M280.31 123.897H291.483M280.31 123.897V135.069M302.655 112.724V123.897M302.655 112.724H313.828M302.655 123.897H291.483M302.655 123.897H313.828M302.655 123.897V135.069H291.483M291.483 123.897V135.069M313.828 112.724V123.897M313.828 112.724H325V123.897H313.828M23.3448 135.069H12.1724M23.3448 135.069V146.241M23.3448 135.069H34.5172V146.241M12.1724 135.069H1V146.241H12.1724M12.1724 135.069V146.241M56.8621 135.069H68.0345M56.8621 135.069V146.241M90.3793 135.069H79.2069M90.3793 135.069H101.552M90.3793 135.069V146.241M79.2069 135.069H68.0345M79.2069 135.069V146.241M101.552 135.069H112.724M101.552 135.069V146.241M123.897 135.069H112.724M123.897 135.069H135.069M123.897 135.069V146.241M112.724 135.069V146.241M135.069 135.069V146.241M157.414 135.069H146.241M157.414 135.069H168.586M157.414 135.069V146.241M146.241 135.069V146.241M168.586 135.069H179.759M168.586 135.069V146.241H179.759M190.931 135.069H179.759M190.931 135.069H202.103M190.931 135.069V146.241M179.759 135.069V146.241M202.103 135.069V146.241M224.448 135.069H235.621M224.448 135.069V146.241M246.793 135.069H235.621M246.793 135.069H257.966M246.793 135.069V146.241M235.621 135.069V146.241M257.966 135.069V146.241M257.966 135.069H269.138M291.483 135.069H280.31M291.483 135.069V146.241M280.31 135.069H269.138M280.31 135.069V146.241M12.1724 146.241H23.3448M23.3448 146.241H34.5172M23.3448 146.241V157.414H34.5172M34.5172 146.241V157.414M68.0345 135.069V146.241M68.0345 146.241H56.8621M68.0345 146.241H79.2069M68.0345 146.241V157.414M56.8621 146.241H45.6897V157.414M56.8621 146.241V157.414M79.2069 146.241H90.3793M90.3793 146.241H101.552M90.3793 146.241V157.414M112.724 146.241H101.552M112.724 146.241H123.897M112.724 146.241V157.414M101.552 146.241V157.414M123.897 146.241H135.069M123.897 146.241V157.414M135.069 146.241V157.414M135.069 146.241H146.241M157.414 146.241H146.241M157.414 146.241V157.414M146.241 146.241V157.414M179.759 146.241H190.931M179.759 146.241V157.414M202.103 146.241H190.931M202.103 146.241H213.276M202.103 146.241V157.414M190.931 146.241V157.414M235.621 146.241H224.448M235.621 146.241V157.414M235.621 146.241H246.793M224.448 146.241H213.276M224.448 146.241V157.414M257.966 146.241H246.793M257.966 146.241H269.138M246.793 146.241V157.414M269.138 135.069V146.241M269.138 146.241H280.31M269.138 146.241V157.414M280.31 146.241H291.483M280.31 146.241V157.414M291.483 146.241V157.414H280.31M313.828 146.241H325V135.069H313.828V146.241ZM313.828 146.241H302.655V157.414H313.828V146.241ZM34.5172 157.414H45.6897M34.5172 157.414V168.586M56.8621 157.414H45.6897M56.8621 157.414H68.0345M56.8621 157.414V168.586M45.6897 157.414V168.586M68.0345 157.414V168.586M68.0345 157.414H79.2069M101.552 157.414H90.3793M101.552 157.414V168.586M90.3793 157.414H79.2069M90.3793 157.414V168.586M123.897 157.414H112.724M123.897 157.414H135.069M123.897 157.414V168.586M112.724 157.414V168.586M135.069 157.414H146.241M146.241 157.414H157.414M146.241 157.414V168.586H157.414V157.414M190.931 157.414H179.759M190.931 157.414V168.586M179.759 157.414H168.586V168.586H179.759M179.759 157.414V168.586M213.276 146.241V157.414M213.276 157.414H202.103M213.276 157.414H224.448M213.276 157.414V168.586M202.103 157.414V168.586M224.448 157.414H235.621M235.621 157.414H246.793M235.621 157.414V168.586H246.793V157.414M280.31 157.414H269.138M280.31 157.414V168.586M269.138 157.414H257.966V168.586H269.138M269.138 157.414V168.586M45.6897 168.586H34.5172M45.6897 168.586H56.8621M45.6897 168.586V179.759M34.5172 168.586H23.3448V179.759M34.5172 168.586V179.759M56.8621 168.586H68.0345M56.8621 168.586V179.759M68.0345 168.586H79.2069M68.0345 168.586V179.759M79.2069 157.414V168.586M79.2069 168.586H90.3793M90.3793 168.586H101.552M90.3793 168.586V179.759M101.552 168.586V179.759M123.897 168.586H112.724M123.897 168.586V179.759M123.897 168.586H135.069V179.759M112.724 168.586V179.759H123.897M179.759 168.586H190.931M179.759 168.586V179.759M190.931 168.586V179.759M213.276 168.586H202.103M213.276 168.586V179.759M213.276 168.586H224.448V179.759M202.103 168.586V179.759H213.276M269.138 168.586H280.31M269.138 168.586V179.759M280.31 168.586V179.759M34.5172 179.759H23.3448M34.5172 179.759H45.6897M34.5172 179.759V190.931M23.3448 179.759H12.1724V190.931H23.3448M23.3448 179.759V190.931M45.6897 179.759V190.931M45.6897 179.759H56.8621M68.0345 179.759H56.8621M68.0345 179.759H79.2069V190.931M68.0345 179.759V190.931M56.8621 179.759V190.931M101.552 179.759H90.3793M101.552 179.759V190.931M90.3793 179.759V190.931M123.897 179.759H135.069M123.897 179.759V190.931H135.069V179.759M190.931 179.759H179.759M190.931 179.759V190.931M179.759 179.759V190.931M213.276 179.759H224.448M213.276 179.759V190.931H224.448V179.759M280.31 179.759H269.138M280.31 179.759V190.931M269.138 179.759V190.931M302.655 168.586H291.483V179.759H302.655M302.655 168.586V179.759M302.655 168.586H313.828V179.759M302.655 179.759H313.828M302.655 179.759V190.931H313.828V179.759M23.3448 190.931H34.5172M23.3448 190.931V202.103M34.5172 190.931H45.6897M34.5172 190.931V202.103M45.6897 190.931H56.8621M45.6897 190.931V202.103M56.8621 190.931H68.0345M56.8621 190.931V202.103M79.2069 190.931H68.0345M79.2069 190.931H90.3793M79.2069 190.931V202.103M68.0345 190.931V202.103M101.552 190.931H90.3793M101.552 190.931H112.724V202.103M101.552 190.931V202.103M90.3793 190.931V202.103M157.414 179.759H146.241V190.931H157.414M157.414 179.759V190.931M157.414 179.759H168.586V190.931M157.414 190.931H168.586M157.414 190.931V202.103M168.586 190.931V202.103M168.586 190.931H179.759M190.931 190.931H179.759M190.931 190.931H202.103V202.103M190.931 190.931V202.103M179.759 190.931V202.103M246.793 179.759H235.621V190.931H246.793M246.793 179.759V190.931M246.793 179.759H257.966V190.931M246.793 190.931H257.966M246.793 190.931V202.103M257.966 190.931V202.103M257.966 190.931H269.138M280.31 190.931H269.138M280.31 190.931H291.483V202.103M280.31 190.931V202.103M269.138 190.931V202.103M34.5172 202.103H23.3448M34.5172 202.103H45.6897M34.5172 202.103V213.276M23.3448 202.103V213.276M45.6897 202.103V213.276M45.6897 202.103H56.8621M68.0345 202.103H56.8621M68.0345 202.103V213.276M68.0345 202.103H79.2069M56.8621 202.103V213.276M90.3793 202.103H79.2069M90.3793 202.103H101.552M90.3793 202.103V213.276M79.2069 202.103V213.276H68.0345M112.724 202.103H101.552M112.724 202.103V213.276M112.724 202.103H123.897V213.276M101.552 202.103V213.276M168.586 202.103H157.414M168.586 202.103H179.759M168.586 202.103V213.276H179.759M157.414 202.103H146.241V213.276H157.414V202.103ZM179.759 202.103V213.276M179.759 202.103H190.931M202.103 202.103H190.931M202.103 202.103H213.276V213.276M202.103 202.103V213.276M190.931 202.103V213.276M257.966 202.103H246.793M257.966 202.103H269.138M257.966 202.103V213.276M246.793 202.103H235.621V213.276M246.793 202.103V213.276M269.138 202.103V213.276M269.138 202.103H280.31M291.483 202.103H280.31M291.483 202.103H302.655V213.276M291.483 202.103V213.276M280.31 202.103V213.276M12.1724 213.276V202.103H1V213.276M12.1724 213.276H1M12.1724 213.276V224.448M12.1724 213.276H23.3448M1 213.276V224.448H12.1724M34.5172 213.276H23.3448M34.5172 213.276H45.6897M34.5172 213.276V224.448M23.3448 213.276V224.448M45.6897 213.276H56.8621M56.8621 213.276H68.0345M56.8621 213.276V224.448H68.0345M68.0345 213.276V224.448M101.552 213.276H90.3793M101.552 213.276H112.724M101.552 213.276V224.448M90.3793 213.276V224.448M112.724 213.276H123.897M123.897 213.276H135.069V224.448M123.897 213.276V224.448M179.759 213.276H190.931M190.931 213.276H202.103M190.931 213.276V224.448H202.103M213.276 213.276H202.103M213.276 213.276H224.448M213.276 213.276V224.448M202.103 213.276V224.448M246.793 213.276H235.621M246.793 213.276H257.966M246.793 213.276V224.448M235.621 213.276H224.448M235.621 213.276V224.448M269.138 213.276H257.966M269.138 213.276H280.31M269.138 213.276V224.448M257.966 213.276V224.448M280.31 213.276V224.448M302.655 213.276H291.483M302.655 213.276V224.448M291.483 213.276V224.448M12.1724 224.448H23.3448M23.3448 224.448H34.5172M34.5172 224.448H45.6897V235.621H34.5172V224.448ZM68.0345 224.448H79.2069M68.0345 224.448V235.621H79.2069M101.552 224.448H90.3793M101.552 224.448V235.621M90.3793 224.448H79.2069M90.3793 224.448V235.621M135.069 224.448H123.897M135.069 224.448V235.621M135.069 224.448H146.241V235.621H135.069M123.897 224.448H112.724V235.621H123.897M123.897 224.448V235.621M202.103 224.448H213.276M202.103 224.448V235.621M224.448 213.276V224.448M224.448 224.448H213.276M224.448 224.448H235.621M224.448 224.448V235.621M213.276 224.448V235.621M235.621 224.448V235.621M235.621 224.448H246.793M257.966 224.448H246.793M257.966 224.448V235.621M257.966 224.448H269.138M246.793 224.448V235.621M280.31 224.448H269.138M280.31 224.448V235.621M269.138 224.448V235.621M302.655 224.448H291.483M302.655 224.448V235.621M302.655 224.448H313.828M291.483 224.448V235.621M325 224.448V213.276H313.828V224.448M325 224.448H313.828M325 224.448V235.621M313.828 224.448V235.621M79.2069 224.448V235.621M79.2069 235.621H90.3793M90.3793 235.621H101.552M90.3793 235.621V246.793M101.552 235.621V246.793M123.897 235.621H135.069M213.276 235.621H202.103M213.276 235.621V246.793M202.103 235.621V246.793M235.621 235.621H224.448M235.621 235.621H246.793M235.621 235.621V246.793M224.448 235.621V246.793M246.793 235.621H257.966M257.966 235.621H269.138M269.138 235.621H280.31M269.138 235.621V246.793M280.31 235.621V246.793M280.31 235.621H291.483M302.655 235.621H291.483M302.655 235.621H313.828M302.655 235.621V246.793H291.483M291.483 235.621V246.793M313.828 235.621H325M313.828 235.621V246.793M325 235.621V246.793M101.552 246.793H90.3793M101.552 246.793V257.966M101.552 246.793H112.724M90.3793 246.793V257.966M179.759 235.621H168.586V246.793H179.759M179.759 235.621V246.793M179.759 235.621H190.931V246.793M179.759 246.793H190.931M190.931 246.793H202.103M190.931 246.793V257.966M213.276 246.793H202.103M213.276 246.793V257.966M202.103 246.793V257.966M235.621 246.793H224.448M235.621 246.793V257.966M224.448 246.793V257.966M280.31 246.793H269.138M280.31 246.793H291.483M280.31 246.793V257.966M269.138 246.793V257.966M325 246.793H313.828M325 246.793V257.966H313.828V246.793M12.1724 246.793H1V257.966M12.1724 246.793V257.966M12.1724 246.793H23.3448M12.1724 257.966H1M12.1724 257.966H23.3448M12.1724 257.966V269.138M1 257.966V269.138M23.3448 246.793V257.966M23.3448 246.793H34.5172M23.3448 257.966H34.5172M34.5172 246.793V257.966M34.5172 246.793H45.6897M34.5172 257.966H45.6897M45.6897 246.793V257.966M45.6897 246.793H56.8621M45.6897 257.966H56.8621M56.8621 246.793V257.966M56.8621 246.793H68.0345M56.8621 257.966H68.0345M68.0345 246.793V257.966M68.0345 246.793H79.2069V257.966M68.0345 257.966H79.2069M68.0345 257.966V269.138M79.2069 257.966V269.138M101.552 257.966H90.3793M101.552 257.966H112.724M101.552 257.966V269.138M90.3793 257.966V269.138M112.724 246.793V257.966M112.724 246.793H123.897M112.724 257.966H123.897M112.724 257.966V269.138M123.897 246.793V257.966M123.897 246.793H135.069V257.966H123.897M123.897 257.966V269.138M157.414 257.966V246.793H146.241V257.966M157.414 257.966H146.241M157.414 257.966V269.138M157.414 257.966H168.586M146.241 257.966V269.138M202.103 257.966H190.931M202.103 257.966H213.276M202.103 257.966V269.138M190.931 257.966H179.759M190.931 257.966V269.138M213.276 257.966V269.138M213.276 257.966H224.448M235.621 257.966H224.448M235.621 257.966V269.138M224.448 257.966V269.138M280.31 257.966H269.138M280.31 257.966V269.138M280.31 257.966H291.483V269.138H280.31M269.138 257.966V269.138M12.1724 269.138H1M12.1724 269.138V280.31M1 269.138V280.31M79.2069 269.138H68.0345M79.2069 269.138V280.31M68.0345 269.138V280.31M101.552 269.138H90.3793M101.552 269.138H112.724M101.552 269.138V280.31M90.3793 269.138V280.31M112.724 269.138H123.897M112.724 269.138V280.31M123.897 269.138H135.069V280.31M123.897 269.138V280.31M157.414 269.138H146.241M157.414 269.138H168.586M157.414 269.138V280.31M146.241 269.138V280.31M168.586 257.966V269.138M168.586 257.966H179.759M168.586 269.138H179.759M179.759 257.966V269.138M179.759 269.138H190.931M190.931 269.138H202.103M190.931 269.138V280.31M202.103 269.138H213.276M202.103 269.138V280.31M213.276 269.138H224.448M224.448 269.138H235.621M224.448 269.138V280.31M235.621 269.138V280.31M235.621 269.138H246.793M280.31 269.138H269.138M280.31 269.138V280.31M269.138 269.138H257.966M269.138 269.138V280.31M12.1724 280.31H1M12.1724 280.31V291.483M1 280.31V291.483M34.5172 269.138H23.3448V280.31M34.5172 269.138V280.31M34.5172 269.138H45.6897M34.5172 280.31H23.3448M34.5172 280.31H45.6897M34.5172 280.31V291.483M23.3448 280.31V291.483M45.6897 269.138V280.31M45.6897 269.138H56.8621V280.31M45.6897 280.31H56.8621M45.6897 280.31V291.483M56.8621 280.31V291.483M79.2069 280.31H68.0345M79.2069 280.31V291.483M68.0345 280.31V291.483M101.552 280.31H90.3793M101.552 280.31H112.724M101.552 280.31V291.483M90.3793 280.31V291.483H101.552M112.724 280.31V291.483M135.069 280.31H123.897M135.069 280.31V291.483H123.897V280.31M157.414 280.31H146.241M157.414 280.31V291.483M157.414 280.31H168.586V291.483M146.241 280.31V291.483M202.103 280.31H190.931M202.103 280.31V291.483M190.931 280.31V291.483H202.103M235.621 280.31H224.448M235.621 280.31H246.793M235.621 280.31V291.483H224.448V280.31M246.793 269.138V280.31M246.793 269.138H257.966M246.793 280.31H257.966M246.793 280.31V291.483M257.966 269.138V280.31M257.966 280.31H269.138M257.966 280.31V291.483M269.138 280.31H280.31M269.138 280.31V291.483H280.31V280.31M325 280.31V269.138H313.828V280.31M325 280.31H313.828M325 280.31V291.483H313.828M313.828 280.31H302.655M313.828 280.31V291.483M12.1724 291.483H1M12.1724 291.483V302.655M1 291.483V302.655M34.5172 291.483H23.3448M34.5172 291.483H45.6897M34.5172 291.483V302.655M23.3448 291.483V302.655H34.5172M45.6897 291.483H56.8621M45.6897 291.483V302.655M56.8621 291.483V302.655H45.6897M79.2069 291.483H68.0345M79.2069 291.483V302.655M68.0345 291.483V302.655M101.552 291.483H112.724M101.552 291.483V302.655M112.724 291.483V302.655M157.414 291.483H146.241M157.414 291.483H168.586M157.414 291.483V302.655M146.241 291.483V302.655M168.586 291.483V302.655M202.103 291.483H213.276V302.655M202.103 291.483V302.655M257.966 291.483H246.793M257.966 291.483V302.655M246.793 291.483V302.655H257.966M302.655 280.31H291.483V291.483M302.655 280.31V291.483M302.655 291.483H291.483M302.655 291.483H313.828M302.655 291.483V302.655M291.483 291.483V302.655M12.1724 302.655H1M12.1724 302.655V313.828M1 302.655V313.828M34.5172 302.655H45.6897M79.2069 302.655H68.0345M79.2069 302.655V313.828M68.0345 302.655V313.828M112.724 302.655H101.552M112.724 302.655V313.828M101.552 302.655V313.828M157.414 302.655H146.241M157.414 302.655H168.586M157.414 302.655V313.828M146.241 302.655H135.069M146.241 302.655V313.828M168.586 302.655H179.759M168.586 302.655V313.828M213.276 302.655H202.103M213.276 302.655H224.448V313.828M213.276 302.655V313.828M202.103 302.655H190.931M202.103 302.655V313.828M257.966 302.655H269.138V313.828M257.966 302.655V313.828M302.655 302.655H291.483M302.655 302.655V313.828M302.655 302.655H313.828M291.483 302.655H280.31V313.828M291.483 302.655V313.828M12.1724 313.828H1M12.1724 313.828V325M12.1724 313.828H23.3448M1 313.828V325H12.1724M79.2069 313.828H68.0345M79.2069 313.828V325H68.0345M68.0345 313.828H56.8621M68.0345 313.828V325M112.724 313.828H101.552M112.724 313.828V325M112.724 313.828H123.897M101.552 313.828H90.3793V325H101.552M101.552 313.828V325M135.069 302.655H123.897V313.828M135.069 302.655V313.828M135.069 313.828H123.897M135.069 313.828H146.241M135.069 313.828V325H123.897M123.897 313.828V325M146.241 313.828H157.414M146.241 313.828V325H157.414M157.414 313.828V325M157.414 313.828H168.586M179.759 302.655V313.828M179.759 302.655H190.931M179.759 313.828H168.586M179.759 313.828H190.931M179.759 313.828V325H168.586M168.586 313.828V325M190.931 302.655V313.828M190.931 313.828H202.103M190.931 313.828V325H202.103M202.103 313.828V325M202.103 313.828H213.276M224.448 313.828H213.276M224.448 313.828V325M224.448 313.828H235.621M213.276 313.828V325M269.138 313.828H257.966M269.138 313.828V325M269.138 313.828H280.31M257.966 313.828H246.793M257.966 313.828V325M291.483 313.828H280.31M291.483 313.828H302.655M291.483 313.828V325H302.655M280.31 313.828V325H269.138M302.655 313.828H313.828M302.655 313.828V325M313.828 302.655V313.828M313.828 302.655H325V313.828H313.828M313.828 313.828V325H302.655M12.1724 325H23.3448M23.3448 313.828V325M23.3448 313.828H34.5172M23.3448 325H34.5172M34.5172 313.828V325M34.5172 313.828H45.6897M34.5172 325H45.6897M45.6897 313.828V325M45.6897 313.828H56.8621M45.6897 325H56.8621M56.8621 313.828V325M56.8621 325H68.0345M101.552 325H112.724M112.724 325H123.897M157.414 325H168.586M202.103 325H213.276M213.276 325H224.448M224.448 325H235.621M235.621 313.828V325M235.621 313.828H246.793M235.621 325H246.793M246.793 313.828V325M246.793 325H257.966M257.966 325H269.138M146.241 1H157.414V12.1724H146.241V1ZM313.828 90.3793H325V101.552H313.828V90.3793ZM246.793 246.793H257.966V257.966H246.793V246.793Z" stroke="#333333" stroke-width="0.5"/>
</svg>
